<?xml version="1.0" standalone="no"?><!DOCTYPE svg PUBLIC "-//W3C//DTD SVG 1.1//EN" "http://www.w3.org/Graphics/SVG/1.1/DTD/svg11.dtd"><svg class="icon" width="200px" height="200.00px" viewBox="0 0 1024 1024" version="1.1" xmlns="http://www.w3.org/2000/svg"><path d="M901.557832 195.910948 122.431935 195.910948c-33.127492 0-60.042491 26.900673-60.042491 60.065004l0 509.325078c0 33.221636 26.885324 60.065004 60.042491 60.065004l779.125897 0c33.135678 0 60.051701-26.901697 60.051701-60.065004L961.609533 255.975952C961.609533 222.75227 934.724209 195.910948 901.557832 195.910948zM796.517497 410.939303l-268.550339 155.051355c-4.15667 3.541663-9.485025 5.41636-14.886035 5.328355-5.399987 0.088004-10.726296-1.786693-14.883989-5.328355l-268.551362-155.051355c-10.765181-6.205329-14.497179-19.875676-8.246825-30.706349 6.212492-10.742668 19.897166-14.488992 30.727839-8.225335l260.954337 150.661372 260.956384-150.661372c10.829649-6.263657 24.514323-2.517333 30.720675 8.225335C811.021839 391.063627 807.275515 404.733974 796.517497 410.939303z" fill="#7D7D7D" /></svg>